# xmcd
#
# Track frame offsets:
# 225
# 17387
# 36815
# 71180
# 85360
# 101020
# 119085
# 134320
# 151050
# 176125
# 191085
# 205320
# 236255
# 259515
# 282810
# 304495
#
# Disc length: 4388 seconds
#
#
# Revision: 0
# Processed by: cddbd v1.5.1PL0 Copyright (c) Steve Scherf et al.
# Submitted via: FreeRIP 2.942 
#
DISCID=e3112110
DTITLE=Various Artist - Blues-To-Bop and Worldmusic Festival
DYEAR=1995
DGENRE=Blues
TTITLE0=Magaria
TTITLE1=Lafrak
TTITLE2=Voï en Camargue
TTITLE3=Marianne
TTITLE4=Evangeline special
TTITLE5=I am who I am
TTITLE6=Mama Whoopin' Blues
TTITLE7=Operator
TTITLE8=Comming thru the backdoor
TTITLE9=Sweet bye an bye
TTITLE10=I want Jesus to go with me
TTITLE11=I'll be there (When the role is called)
TTITLE12=Moonbeat
TTITLE13=Let me come Home Whisky
TTITLE14=Feel like breaking up Somebody's Home
TTITLE15=I've got to love somebody
EXTD="Compilation 1995" - 23 - 27 Agosto
EXTT0=
EXTT1=
EXTT2=
EXTT3=
EXTT4=
EXTT5=
EXTT6=
EXTT7=
EXTT8=
EXTT9=
EXTT10=
EXTT11=
EXTT12=
EXTT13=
EXTT14=
EXTT15=
PLAYORDER=
